<svg xmlns="http://www.w3.org/2000/svg"  viewBox="0 0 100 100" width="50px" height="50px"><path fill="#4dc889" d="M63.604,58.952c-4.823,3.379-4.742,7.883-3.535,10.135c1.206,2.253-3.617,10.135-3.617,10.135 h-7.235c0,0,1.206-2.252,2.412-3.378c1.206-1.126,3.617-6.757-1.206-11.262c-8.44-6.757-2.411-15.766-2.411-15.766L63.604,58.952z"/><path d="M57.081,80.347h-9.74l0.885-1.654c0.053-0.099,1.308-2.431,2.635-3.67c0.447-0.417,1.323-2.115,1.323-4.149 c0-2.063-0.851-3.903-2.529-5.47c-9.076-7.261-2.644-17.113-2.578-17.212l0.624-0.934l1.869,1.25l-0.625,0.934 c-0.219,0.332-5.334,8.248,2.18,14.263c2.744,2.559,3.307,5.305,3.307,7.169c0,2.526-1.048,4.869-2.036,5.792 c-0.389,0.364-0.805,0.9-1.171,1.433h4.591c2.215-3.749,3.72-7.626,3.262-8.482c-1.388-2.591-1.5-7.816,3.881-11.586l0.921-0.645 l1.289,1.84l-0.92,0.645c-4.51,3.159-4.059,7.062-3.189,8.685c1.399,2.617-2.44,9.274-3.649,11.253L57.081,80.347z"/><path fill="#4dc889" d="M53.489,62.33c0,0,10.115,9.009,20.23,9.009s11.239-9.009,11.239-11.262 c0-2.252,0-4.504-3.371-7.883c3.371,4.505,0,12.388-5.619,12.388c-4.634,0-6.744-2.252-10.115-13.514 c-4.047-13.515-20.231-12.388-25.85-14.64c-5.619-2.252-2.248-9.009-6.743-13.514c-2.248-2.252-4.068,0.778-7.868-1.126 c-7.655-3.836-10.115,4.505-10.115,4.505l8.692,3.791c0.354,0.178,0.228,0.713-0.168,0.713h-5.458 c-0.685,0-0.997,0.866-0.462,1.295c1.772,1.421,4.964,3.6,8.636,4.336c2.248,1.126,1.124,6.757,3.372,10.135 C32.135,49.943,36.631,63.457,53.489,62.33z"/><path d="M73.719,72.464c-9.461,0-18.679-7.344-20.619-8.984c-14.951,0.786-20.463-9.523-23.133-14.5 c-0.397-0.739-0.739-1.377-1.016-1.793c-1.218-1.831-1.542-4.115-1.828-6.13c-0.208-1.471-0.443-3.128-1.02-3.566 c-3.703-0.79-6.892-2.888-8.927-4.521c-0.619-0.496-0.85-1.302-0.585-2.053c0.265-0.755,0.952-1.242,1.75-1.242h1.878 l-6.301-2.748l0.281-0.951c0.05-0.173,1.292-4.266,4.766-5.775c2.048-0.889,4.382-0.694,6.93,0.583 c1.546,0.776,2.633,0.564,3.78,0.337c1.26-0.247,2.829-0.553,4.379,1c2.318,2.323,2.766,5.118,3.161,7.583 c0.482,3.001,0.867,4.745,3.205,5.681c1.232,0.494,3.112,0.828,5.291,1.215c7.142,1.27,17.936,3.189,21.217,14.146 c3.446,11.509,5.4,12.712,9.039,12.712c2.03,0,3.898-1.307,4.994-3.499c1.225-2.447,1.118-5.231-0.275-7.092l1.696-1.467 c3.7,3.708,3.7,6.347,3.7,8.677C86.082,60.584,85.941,72.464,73.719,72.464z M53.884,61.177l0.353,0.314 c0.097,0.087,9.923,8.725,19.483,8.725c10,0,10.115-9.724,10.115-10.138c0-0.48,0-0.945-0.033-1.411 c-0.18,0.78-0.455,1.553-0.83,2.3c-1.486,2.968-4.105,4.74-7.004,4.74c-5.486,0-7.787-2.943-11.192-14.315 c-2.883-9.631-12.463-11.333-19.457-12.577c-2.301-0.409-4.287-0.762-5.734-1.342c-3.633-1.456-4.118-4.484-4.588-7.412 c-0.357-2.233-0.728-4.542-2.533-6.351c-0.671-0.673-1.131-0.623-2.354-0.382c-1.259,0.248-2.985,0.587-5.221-0.533 c-1.923-0.964-3.615-1.142-5.026-0.531c-1.649,0.716-2.65,2.385-3.139,3.435l7.695,3.358c0.68,0.338,1.003,1.032,0.842,1.713 c-0.16,0.68-0.761,1.155-1.459,1.155h-4.294c1.69,1.23,4.318,2.821,7.23,3.404l0.283,0.097c1.697,0.85,2.004,3.02,2.33,5.317 c0.251,1.778,0.538,3.794,1.474,5.201c0.336,0.504,0.702,1.186,1.124,1.974c2.666,4.969,7.607,14.209,21.467,13.292L53.884,61.177 z"/><path fill="#4dc889" d="M33.151,49.489c0,0-3.194,2.499-7.462,1.082c-4.267-1.416-4.974,0.722-4.974,0.722 s3.187-6.06,6.388-4.998c3.201,1.063,4.261-2.145,4.261-2.145L33.151,49.489z"/><path d="M28.341,52.133c-0.925,0-1.935-0.139-3.007-0.494c-2.218-0.738-3.226-0.379-3.514-0.026 c-0.04,0.07-0.076,0.139-0.111,0.204l-2.061-0.876c0.023-0.071,0.097-0.269,0.261-0.515c0.837-1.479,3.938-6.393,7.546-5.198 c1.951,0.649,2.668-0.937,2.843-1.438l0.367-1.054l2.115,0.708l-0.35,1.059c-0.063,0.191-0.665,1.893-2.298,2.713 c-1.009,0.507-2.146,0.556-3.384,0.145c-0.939-0.311-2.079,0.523-3.068,1.626c0.717,0.061,1.505,0.233,2.363,0.518 c3.614,1.2,6.306-0.818,6.419-0.905l0.888-0.68l1.373,1.764l-0.881,0.689C33.727,50.466,31.548,52.133,28.341,52.133z"/><g><path d="M28.763,27.411v-2.248h2.248v2.248C28.763,27.411,31.011,27.411,28.763,27.411z"/></g><g><path fill="#4dc889" d="M57.984,58.952c-4.823,3.379-4.741,7.883-3.536,10.135c1.206,2.253-3.617,10.135-3.617,10.135 h-7.235c0,0,1.206-2.252,2.411-3.378c1.206-1.126,3.617-6.757-1.206-11.262c-8.44-6.757-2.411-15.766-2.411-15.766L57.984,58.952z"/><path d="M51.462,80.347h-9.74l0.885-1.654c0.052-0.099,1.308-2.431,2.635-3.67c0.447-0.417,1.323-2.115,1.323-4.149 c0-2.063-0.851-3.903-2.529-5.47c-9.076-7.261-2.644-17.113-2.578-17.212l0.625-0.934l1.869,1.25l-0.625,0.934 c-0.22,0.332-5.335,8.248,2.18,14.263c2.744,2.559,3.307,5.305,3.307,7.169c0,2.526-1.048,4.869-2.036,5.792 c-0.39,0.364-0.805,0.9-1.171,1.433h4.591c2.215-3.749,3.72-7.626,3.262-8.482c-1.389-2.591-1.5-7.816,3.881-11.586l0.921-0.645 l1.29,1.84l-0.92,0.645c-4.51,3.159-4.059,7.062-3.189,8.685c1.399,2.617-2.44,9.274-3.65,11.253L51.462,80.347z"/></g></svg>